<svg width="24" height="24" viewBox="0 0 24 24" fill="none" xmlns="http://www.w3.org/2000/svg">
<path d="M12 2V7" stroke="#717171" stroke-width="2" stroke-linecap="round" stroke-linejoin="round"/>
<path d="M14.829 15.998C14.9887 16.4505 15.0375 16.9346 14.9714 17.4099C14.9053 17.8851 14.7261 18.3375 14.449 18.7292C14.1719 19.1209 13.8048 19.4403 13.3787 19.6608C12.9526 19.8813 12.4798 19.9964 12 19.9964C11.5202 19.9964 11.0474 19.8813 10.6213 19.6608C10.1952 19.4403 9.82813 19.1209 9.55101 18.7292C9.27389 18.3375 9.09475 17.8851 9.02863 17.4099C8.9625 16.9346 9.01133 16.4505 9.171 15.998" stroke="#717171" stroke-width="2" stroke-linecap="round" stroke-linejoin="round"/>
<path d="M20.9199 14.606C20.9851 14.7582 21.0116 14.9242 20.9968 15.0891C20.9821 15.254 20.9266 15.4126 20.8354 15.5508C20.7442 15.689 20.6201 15.8024 20.4743 15.8808C20.3285 15.9592 20.1655 16.0001 19.9999 16H3.99991C3.83435 16.0001 3.67134 15.9592 3.52551 15.8808C3.37968 15.8024 3.2556 15.689 3.1644 15.5508C3.07321 15.4126 3.01774 15.254 3.003 15.0891C2.98825 14.9242 3.01468 14.7582 3.07991 14.606L6.07991 7.606C6.15707 7.426 6.28539 7.27262 6.44894 7.16489C6.61249 7.05716 6.80407 6.99983 6.99991 7H16.9999C17.1958 6.99983 17.3873 7.05716 17.5509 7.16489C17.7144 7.27262 17.8428 7.426 17.9199 7.606L20.9199 14.606Z" stroke="#717171" stroke-width="2" stroke-linecap="round" stroke-linejoin="round"/>
</svg>
